<?xml version='1.0' encoding='utf-8'?>
<svg xmlns="http://www.w3.org/2000/svg" version="1.1" viewBox="1166.410 260.038 753.051 753.943" width="753.051" height="753.943"><path d="M1167.41,655.15h205.025c1.065,62.028,7.592,121.591,18.97,175.078c-48.296,12.293-93.309,30.298-132.091,53.318   C1205.533,821.756,1171.57,742.293,1167.41,655.15z M1259.313,390.474c38.782,23.019,83.795,41.025,132.091,53.318   c-11.378,53.487-17.905,113.049-18.97,175.078H1167.41C1171.57,531.725,1205.533,452.263,1259.313,390.474z M1918.461,618.869   h-205.025c-1.066-62.083-7.605-121.696-19.001-175.219c48.615-12.369,93.928-30.428,132.156-53.139   C1880.351,452.295,1914.301,531.744,1918.461,618.869z M1408.713,618.869c1.051-59.44,7.279-116.315,18.085-167.199   c37.663,7.178,76.783,11.001,116.137,11.001c38.966,0,78.216-3.88,116.104-11.151c10.826,50.922,17.066,107.85,18.118,167.349   H1408.713z M1677.157,655.15c-1.052,59.499-7.292,116.427-18.118,167.349c-37.889-7.271-77.138-11.151-116.104-11.151   c-39.354,0-78.474,3.823-116.137,11.001c-10.806-50.883-17.034-107.759-18.085-167.199H1677.157z M1685.904,408.146   c-5.353-19.925-11.405-38.823-18.193-56.362c-13.141-33.951-28.452-61.558-45.344-82.273   c68.09,14.703,129.374,47.892,178.316,94.05C1767.367,382.225,1727.969,397.391,1685.904,408.146z M1633.875,364.88   c6.161,15.921,11.676,33.075,16.59,51.151c-35.326,6.727-71.787,10.359-107.53,10.359c-36.521,0-72.762-3.479-107.628-9.999   c4.938-18.21,10.485-35.485,16.688-51.512c25.543-65.992,58.688-103.841,90.94-103.841   C1575.187,261.039,1608.332,298.887,1633.875,364.88z M1418.159,351.783c-6.835,17.662-12.927,36.7-18.307,56.78   c-41.685-10.644-80.593-25.85-114.615-45.05c48.933-46.133,110.199-79.304,178.265-94.003   C1446.611,290.226,1431.299,317.832,1418.159,351.783z M1399.852,865.456c5.38,20.081,11.472,39.119,18.307,56.781   c13.141,33.95,28.452,61.556,45.343,82.271c-68.066-14.698-129.331-47.87-178.264-94.002   C1319.261,891.306,1358.168,876.1,1399.852,865.456z M1451.995,909.14c-6.202-16.027-11.75-33.301-16.688-51.511   c34.866-6.52,71.108-10,107.628-10c35.743,0,72.203,3.632,107.53,10.36c-4.914,18.077-10.428,35.23-16.59,51.151   c-25.543,65.992-58.689,103.841-90.94,103.841C1510.683,1012.98,1477.538,975.132,1451.995,909.14z M1667.711,922.237   c6.788-17.539,12.84-36.438,18.193-56.363c42.064,10.755,81.462,25.921,114.779,44.584   c-48.942,46.157-110.225,79.346-178.315,94.049C1639.259,983.793,1654.571,956.188,1667.711,922.237z M1694.435,830.369   c11.396-53.523,17.935-113.136,19.001-175.219h205.025c-4.16,87.126-38.109,166.574-91.87,228.358   C1788.362,860.797,1743.05,842.738,1694.435,830.369z" /></svg>